<svg width="512" height="512" version="1.1" viewBox="0 0 135.47 135.47" xmlns="http://www.w3.org/2000/svg">
 <g transform="matrix(.26458 0 0 .26458 1083.7 541.86)">
  <path d="m-4004-2016c-32.994 0-60 27.005-60 60.001 0 32.994 27.006 59.999 60 59.999 19.721 0 37.295-9.653 48.249-24.46l57.816 28.909c-1.339 4.96-2.065 10.164-2.065 15.531 0 5.58 0.79 10.982 2.233 16.117l-58.839 31.244c-11.002-14.17-28.175-23.341-47.394-23.341-32.994 0-60 27.004-60 59.999 0 32.994 27.006 60.001 60 60.001 19.219 0 36.392-9.172 47.394-23.343l58.839 31.245c-1.443 5.136-2.233 10.537-2.233 16.117 0 5.367 0.726 10.572 2.065 15.531l-57.816 28.91c-10.954-14.808-28.528-24.46-48.249-24.46-32.994 0-60 27.004-60 59.999s27.006 60.001 60 60.001c32.996 0 60.001-27.006 60.001-60.001 0-4.737-0.574-9.344-1.625-13.772l58.478-29.238c11.01 13.992 28.07 23.031 47.147 23.031 32.995 0 59.998-27.006 59.998-60.001 0-5.379-0.728-10.594-2.072-15.564l60.153-30.079c11.03 13.192 27.588 21.624 46.021 21.624 32.994 0 59.998-27.007 59.998-60.001 0-32.995-27.004-59.999-59.998-59.999-18.433 0-34.991 8.431-46.021 21.623l-60.153-30.078c1.344-4.97 2.072-10.186 2.072-15.565 0-32.995-27.003-60.001-59.998-60.001-19.077 0-36.137 9.039-47.147 23.031l-58.478-29.24c1.051-4.427 1.625-9.033 1.625-13.769 0-32.996-27.005-60.001-60.001-60.001zm0 24c20.025 0 36.001 15.976 36.001 36.001 0 20.024-15.976 35.998-36.001 35.998-20.024 0-36-15.974-36-35.998 0-20.025 15.976-36.001 36-36.001zm164 79.979c20.024 0 36 15.977 36 36.001s-15.976 36-36 36c-20.025 0-36.001-15.976-36.001-36s15.976-36.001 36.001-36.001zm47.123 72.999 59.534 29.767c-1.655 5.471-2.558 11.261-2.558 17.254 0 5.992 0.903 11.784 2.558 17.256l-59.534 29.766c-11.011-13.976-28.06-23.003-47.123-23.003-18.858 0-35.747 8.832-46.768 22.552l-59.185-31.429c1.271-4.842 1.953-9.916 1.953-15.142s-0.682-10.299-1.953-15.141l59.185-31.429c11.021 13.72 27.91 22.552 46.768 22.552 19.063 0 36.112-9.026 47.123-23.003zm-211.12 11.022c20.025 0 36.001 15.975 36.001 35.999s-15.976 36-36.001 36c-20.024 0-36-15.976-36-36s15.976-35.999 36-35.999zm328.1 0c20.024 0 36 15.975 36 35.999s-15.976 36-36 36c-20.025 0-36.001-15.976-36.001-36s15.976-35.999 36.001-35.999zm-164.1 84.019c20.024 0 36 15.976 36 36s-15.976 36.001-36 36.001c-20.025 0-36.001-15.977-36.001-36.001s15.976-36 36.001-36zm-164 79.982c20.025 0 36.001 15.974 36.001 35.998s-15.976 36.001-36.001 36.001c-20.024 0-36-15.977-36-36.001s15.976-35.998 36-35.998z" style="color: rgb(0, 0, 0); stroke-linecap: round; stroke-linejoin: round; fill: rgb(16, 192, 227);" id="id_101"></path>
 </g>
</svg>